M48
METRIC,LZ,000.000
;FILE_FORMAT=3:3
;TYPE=PLATED
;Layer: Drill PTH
;EasyEDA v6.4.25, 2022-04-24T12:17:40--3:00
;602a4f6619a94e3489c8bc082f1fd867,10
;Gerber Generator version 0.2
;Holesize 1 = 0.702 mm
T01C0.702
;Holesize 2 = 0.915 mm
T02C0.915
;Holesize 3 = 1.000 mm
T03C1.000
;Holesize 4 = 1.200 mm
T04C1.200
;Holesize 5 = 1.400 mm
T05C1.400
%
G05
G90
T01
X035027Y008128
X033045Y008128
T02
X045593Y004308
X045593Y009408
X053213Y004308
X053213Y009408
X023749Y006985
X023749Y009525
X023749Y012065
X023749Y014605
X023749Y017145
X023749Y019685
X023749Y022225
X023749Y024765
X023749Y027305
X023749Y029845
X023749Y032385
X023749Y034925
X023749Y037465
X023749Y040005
X023749Y042545
X008509Y042545
X008509Y040005
X008509Y037465
X008509Y034925
X008509Y032385
X008509Y029845
X008509Y027305
X008509Y024765
X008509Y022225
X008509Y019685
X008509Y017145
X008509Y014605
X008509Y012065
X008509Y009525
X008509Y006985
T03
X040256Y014732
X055756Y014732
X036957Y014859
X036957Y017399
X029337Y017399
X029337Y014859
T04
X029936Y043036
X029936Y025036
X063536Y037036
X063536Y031036
T05
X060960Y009271
X066040Y009271
X060452Y015113
X065532Y015113
M30
